OpenSansIPA-CondensedRegular.ufo
<glyph name="sheva-hb" format="2">
	<advance width="0"/>
	<unicode hex="05B0"/>
	<anchor x="0" y="-67" name="_bottom"/>
	<note>
		afii57799
	</note>
	<outline>
		<contour>
			<point x="-1" y="-244.66667" type="curve" smooth="yes"/>
			<point x="47.66667" y="-244.66667"/>
			<point x="73.66667" y="-217"/>
			<point x="73.66667" y="-166" type="curve" smooth="yes"/>
			<point x="73.66667" y="-115"/>
			<point x="47.66667" y="-87"/>
			<point x="-1" y="-87" type="curve" smooth="yes"/>
			<point x="-48" y="-87"/>
			<point x="-73.66667" y="-115"/>
			<point x="-73.66667" y="-166" type="curve" smooth="yes"/>
			<point x="-73.66667" y="-217"/>
			<point x="-48" y="-244.66667"/>
		</contour>
		<contour>
			<point x="-1" y="-501" type="curve" smooth="yes"/>
			<point x="47.66667" y="-501"/>
			<point x="73.66667" y="-473"/>
			<point x="73.66667" y="-421.33333" type="curve" smooth="yes"/>
			<point x="73.66667" y="-370.66667"/>
			<point x="47.66667" y="-342.66667"/>
			<point x="-1" y="-342.66667" type="curve" smooth="yes"/>
			<point x="-48" y="-342.66667"/>
			<point x="-73.66667" y="-370.66667"/>
			<point x="-73.66667" y="-421.66667" type="curve" smooth="yes"/>
			<point x="-73.66667" y="-473.33333"/>
			<point x="-48" y="-501"/>
		</contour>
	</outline>
</glyph>
<glyph name="hatafsegol-hb" format="2">
	<advance width="0"/>
	<unicode hex="05B1"/>
	<anchor x="0.33333" y="-72" name="_bottom"/>
	<note>
		afii57801
	</note>
	<outline>
		<contour>
			<point x="-275.33333" y="-249.66667" type="curve" smooth="yes"/>
			<point x="-228" y="-249.66667"/>
			<point x="-201.66667" y="-222"/>
			<point x="-201.66667" y="-171" type="curve" smooth="yes"/>
			<point x="-201.66667" y="-120"/>
			<point x="-228" y="-92"/>
			<point x="-275.33333" y="-92" type="curve" smooth="yes"/>
			<point x="-321" y="-92"/>
			<point x="-347" y="-119"/>
			<point x="-347" y="-171" type="curve" smooth="yes"/>
			<point x="-347" y="-222"/>
			<point x="-321.33333" y="-249.66667"/>
		</contour>
		<contour>
			<point x="15" y="-249.66667" type="curve" smooth="yes"/>
			<point x="63" y="-249.66667"/>
			<point x="89" y="-222"/>
			<point x="89" y="-171" type="curve" smooth="yes"/>
			<point x="89" y="-120.33333"/>
			<point x="63" y="-92"/>
			<point x="15.66667" y="-92" type="curve" smooth="yes"/>
			<point x="-31.33333" y="-92"/>
			<point x="-57" y="-119.33333"/>
			<point x="-57" y="-171" type="curve" smooth="yes"/>
			<point x="-57" y="-222.66667"/>
			<point x="-32.33333" y="-249.66667"/>
		</contour>
		<contour>
			<point x="-129.66667" y="-506" type="curve" smooth="yes"/>
			<point x="-81.66667" y="-506"/>
			<point x="-56.33333" y="-478"/>
			<point x="-56.33333" y="-426.33333" type="curve" smooth="yes"/>
			<point x="-56.33333" y="-375.66667"/>
			<point x="-82.33333" y="-347.66667"/>
			<point x="-129.66667" y="-347.66667" type="curve" smooth="yes"/>
			<point x="-175" y="-347.66667"/>
			<point x="-201.66667" y="-374"/>
			<point x="-201.66667" y="-426.33333" type="curve" smooth="yes"/>
			<point x="-201.66667" y="-478.66667"/>
			<point x="-176.33333" y="-506"/>
		</contour>
		<contour>
			<point x="273.66667" y="-506" type="curve" smooth="yes"/>
			<point x="321.66667" y="-506"/>
			<point x="347" y="-478"/>
			<point x="347" y="-426.33333" type="curve" smooth="yes"/>
			<point x="347" y="-375.66667"/>
			<point x="321.66667" y="-347.66667"/>
			<point x="273.66667" y="-347.66667" type="curve" smooth="yes"/>
			<point x="227.33333" y="-347.66667"/>
			<point x="202" y="-375.66667"/>
			<point x="202" y="-426.66667" type="curve" smooth="yes"/>
			<point x="202" y="-478.66667"/>
			<point x="227.33333" y="-506"/>
		</contour>
		<contour>
			<point x="273.66667" y="-249.66667" type="curve" smooth="yes"/>
			<point x="321.66667" y="-249.66667"/>
			<point x="347" y="-222"/>
			<point x="347" y="-171" type="curve" smooth="yes"/>
			<point x="347" y="-120"/>
			<point x="321.66667" y="-92"/>
			<point x="273.66667" y="-92" type="curve" smooth="yes"/>
			<point x="227.33333" y="-92"/>
			<point x="202" y="-120"/>
			<point x="202" y="-171" type="curve" smooth="yes"/>
			<point x="202" y="-222"/>
			<point x="227.33333" y="-249.66667"/>
		</contour>
	</outline>
</glyph>
<glyph name="hatafpatah-hb" format="2">
	<advance width="0"/>
	<unicode hex="05B2"/>
	<anchor x="-1" y="-72" name="_bottom"/>
	<note>
		afii57800
	</note>
	<outline>
		<contour>
			<point x="-298" y="-213" type="line"/>
			<point x="63" y="-213" type="line"/>
			<point x="63" y="-126.66667" type="line"/>
			<point x="-298" y="-126.66667" type="line"/>
		</contour>
		<contour>
			<point x="224.66667" y="-506" type="curve" smooth="yes"/>
			<point x="272.33333" y="-506"/>
			<point x="298" y="-478"/>
			<point x="298" y="-426.33333" type="curve" smooth="yes"/>
			<point x="298" y="-375.66667"/>
			<point x="272" y="-347.66667"/>
			<point x="224.66667" y="-347.66667" type="curve" smooth="yes"/>
			<point x="179" y="-347.66667"/>
			<point x="152.33333" y="-374"/>
			<point x="152.33333" y="-426.33333" type="curve" smooth="yes"/>
			<point x="152.33333" y="-478.66667"/>
			<point x="177.66667" y="-506"/>
		</contour>
		<contour>
			<point x="224.66667" y="-249.66667" type="curve" smooth="yes"/>
			<point x="272.33333" y="-249.66667"/>
			<point x="298" y="-222"/>
			<point x="298" y="-171" type="curve" smooth="yes"/>
			<point x="298" y="-120"/>
			<point x="272" y="-92"/>
			<point x="224.66667" y="-92" type="curve" smooth="yes"/>
			<point x="179" y="-92"/>
			<point x="152.33333" y="-117.66667"/>
			<point x="152.33333" y="-170.66667" type="curve" smooth="yes"/>
			<point x="152.33333" y="-222"/>
			<point x="177.66667" y="-249.66667"/>
		</contour>
	</outline>
</glyph>
<glyph name="hatafqamats-hb" format="2">
	<advance width="0"/>
	<unicode hex="05B3"/>
	<anchor x="-0.33333" y="-72" name="_bottom"/>
	<note>
		afii57802
	</note>
	<outline>
		<contour>
			<point x="-161" y="-415" type="line"/>
			<point x="-76" y="-415" type="line"/>
			<point x="-76" y="-213" type="line"/>
			<point x="62.33333" y="-213" type="line"/>
			<point x="62.33333" y="-126.66667" type="line"/>
			<point x="-298.66667" y="-126.66667" type="line"/>
			<point x="-298.66667" y="-213" type="line"/>
			<point x="-161" y="-213" type="line"/>
		</contour>
		<contour>
			<point x="225.33333" y="-506" type="curve" smooth="yes"/>
			<point x="273" y="-506"/>
			<point x="298.66667" y="-478"/>
			<point x="298.66667" y="-426.33333" type="curve" smooth="yes"/>
			<point x="298.66667" y="-375.66667"/>
			<point x="273" y="-347.66667"/>
			<point x="225.33333" y="-347.66667" type="curve" smooth="yes"/>
			<point x="178.33333" y="-347.66667"/>
			<point x="153.33333" y="-375.66667"/>
			<point x="153.33333" y="-426.66667" type="curve" smooth="yes"/>
			<point x="153.33333" y="-478.66667"/>
			<point x="178.33333" y="-506"/>
		</contour>
		<contour>
			<point x="225.33333" y="-249.66667" type="curve" smooth="yes"/>
			<point x="273" y="-249.66667"/>
			<point x="298.66667" y="-222"/>
			<point x="298.66667" y="-171" type="curve" smooth="yes"/>
			<point x="298.66667" y="-120"/>
			<point x="273" y="-92"/>
			<point x="225.33333" y="-92" type="curve" smooth="yes"/>
			<point x="178.33333" y="-92"/>
			<point x="153.33333" y="-120"/>
			<point x="153.33333" y="-171" type="curve" smooth="yes"/>
			<point x="153.33333" y="-222"/>
			<point x="178.33333" y="-249.66667"/>
		</contour>
	</outline>
</glyph>
<glyph name="hiriq-hb" format="2">
	<advance width="0"/>
	<unicode hex="05B4"/>
	<anchor x="1" y="-70.33333" name="_bottom"/>
	<note>
		afii57793
	</note>
	<outline>
		<contour>
			<point x="-2.33333" y="-248" type="curve" smooth="yes"/>
			<point x="47" y="-248"/>
			<point x="73.66667" y="-220"/>
			<point x="73.66667" y="-169.33333" type="curve" smooth="yes"/>
			<point x="73.66667" y="-118.66667"/>
			<point x="47" y="-90.33333"/>
			<point x="-1.66667" y="-90.33333" type="curve" smooth="yes"/>
			<point x="-48.66667" y="-90.33333"/>
			<point x="-73.66667" y="-117.66667"/>
			<point x="-73.66667" y="-169.33333" type="curve" smooth="yes"/>
			<point x="-73.66667" y="-221"/>
			<point x="-49.33333" y="-248"/>
		</contour>
	</outline>
</glyph>
<glyph name="tsere-hb" format="2">
	<advance width="0"/>
	<unicode hex="05B5"/>
	<anchor x="1.33333" y="-64" name="_bottom"/>
	<note>
		afii57794
	</note>
	<outline>
		<contour>
			<point x="144.66667" y="-241.66667" type="curve" smooth="yes"/>
			<point x="192.33333" y="-241.66667"/>
			<point x="218.66667" y="-213.66667"/>
			<point x="218.66667" y="-163" type="curve" smooth="yes"/>
			<point x="218.66667" y="-112.33333"/>
			<point x="192.33333" y="-84"/>
			<point x="144.66667" y="-84" type="curve" smooth="yes"/>
			<point x="97.66667" y="-84"/>
			<point x="72.33333" y="-111.66667"/>
			<point x="72.33333" y="-163" type="curve" smooth="yes"/>
			<point x="72.33333" y="-214.66667"/>
			<point x="97.66667" y="-241.66667"/>
		</contour>
		<contour>
			<point x="-146.66667" y="-241.66667" type="curve" smooth="yes"/>
			<point x="-99" y="-241.66667"/>
			<point x="-73.33333" y="-213.66667"/>
			<point x="-73.33333" y="-162.66667" type="curve" smooth="yes"/>
			<point x="-73.33333" y="-112"/>
			<point x="-99.33333" y="-84"/>
			<point x="-146.66667" y="-84" type="curve" smooth="yes"/>
			<point x="-191.66667" y="-84"/>
			<point x="-218.66667" y="-110"/>
			<point x="-218.66667" y="-162.66667" type="curve" smooth="yes"/>
			<point x="-218.66667" y="-214"/>
			<point x="-193.33333" y="-241.66667"/>
		</contour>
	</outline>
</glyph>
<glyph name="segol-hb" format="2">
	<advance width="0"/>
	<unicode hex="05B6"/>
	<anchor x="0.33333" y="-72" name="_bottom"/>
	<note>
		afii57795
	</note>
	<outline>
		<contour>
			<point x="-1" y="-506" type="curve" smooth="yes"/>
			<point x="47.66667" y="-506"/>
			<point x="73.33333" y="-478"/>
			<point x="73.33333" y="-426.33333" type="curve" smooth="yes"/>
			<point x="73.33333" y="-375.66667"/>
			<point x="47.66667" y="-347.66667"/>
			<point x="-1" y="-347.66667" type="curve" smooth="yes"/>
			<point x="-48" y="-347.66667"/>
			<point x="-73.33333" y="-375.66667"/>
			<point x="-73.33333" y="-426.66667" type="curve" smooth="yes"/>
			<point x="-73.33333" y="-478.66667"/>
			<point x="-48" y="-506"/>
		</contour>
		<contour>
			<point x="144.33333" y="-249.66667" type="curve" smooth="yes"/>
			<point x="192.33333" y="-249.66667"/>
			<point x="218.33333" y="-222"/>
			<point x="218.33333" y="-171" type="curve" smooth="yes"/>
			<point x="218.33333" y="-120.33333"/>
			<point x="192.33333" y="-92"/>
			<point x="144.33333" y="-92" type="curve" smooth="yes"/>
			<point x="97" y="-92"/>
			<point x="72.33333" y="-119.33333"/>
			<point x="72.33333" y="-171" type="curve" smooth="yes"/>
			<point x="72.33333" y="-222.66667"/>
			<point x="97" y="-249.66667"/>
		</contour>
		<contour>
			<point x="-146.66667" y="-249.66667" type="curve" smooth="yes"/>
			<point x="-99.33333" y="-249.66667"/>
			<point x="-73.66667" y="-222"/>
			<point x="-73.66667" y="-171" type="curve" smooth="yes"/>
			<point x="-73.66667" y="-120"/>
			<point x="-99.33333" y="-92"/>
			<point x="-146.66667" y="-92" type="curve" smooth="yes"/>
			<point x="-191.66667" y="-92"/>
			<point x="-218.33333" y="-117.66667"/>
			<point x="-218.33333" y="-170.66667" type="curve" smooth="yes"/>
			<point x="-218.33333" y="-222"/>
			<point x="-193.33333" y="-249.66667"/>
		</contour>
	</outline>
</glyph>
<glyph name="qamats-hb" format="2">
	<advance width="0"/>
	<unicode hex="05B8"/>
	<anchor x="0.66667" y="-100" name="_bottom"/>
	<note>
		afii57797
	</note>
	<outline>
		<contour>
			<point x="-42.66667" y="-408.33333" type="line"/>
			<point x="42.66667" y="-408.33333" type="line"/>
			<point x="42.66667" y="-206.66667" type="line"/>
			<point x="183" y="-206.66667" type="line"/>
			<point x="183" y="-120" type="line"/>
			<point x="-183" y="-120" type="line"/>
			<point x="-183" y="-206.66667" type="line"/>
			<point x="-42.66667" y="-206.66667" type="line"/>
		</contour>
	</outline>
</glyph>
<glyph name="holam-hb" format="2">
	<advance width="0"/>
	<unicode hex="05B9"/>
	<anchor x="-1.33333" y="1383" name="_top"/>
	<note>
		afii57806
	</note>
	<outline>
		<contour>
			<point x="-1.66667" y="1410" type="curve" smooth="yes"/>
			<point x="47.66667" y="1410"/>
			<point x="74" y="1438"/>
			<point x="74" y="1488.66667" type="curve" smooth="yes"/>
			<point x="74" y="1539.33333"/>
			<point x="47.66667" y="1567.66667"/>
			<point x="-1" y="1567.66667" type="curve" smooth="yes"/>
			<point x="-48" y="1567.66667"/>
			<point x="-74" y="1540.66667"/>
			<point x="-74" y="1488.66667" type="curve" smooth="yes"/>
			<point x="-74" y="1437"/>
			<point x="-49" y="1410"/>
		</contour>
	</outline>
</glyph>
<glyph name="holamhaser-hb" format="2">
	<advance width="0"/>
	<unicode hex="05BA"/>
	<anchor x="93.33333" y="1390" name="_topleft"/>
	<note>
		uni05BA
	</note>
	<outline>
		<contour>
			<point x="-2" y="1410" type="curve" smooth="yes"/>
			<point x="46.66667" y="1410"/>
			<point x="73.33333" y="1438"/>
			<point x="73.33333" y="1488.66667" type="curve" smooth="yes"/>
			<point x="73.33333" y="1539.33333"/>
			<point x="46.66667" y="1567.66667"/>
			<point x="-1.66667" y="1567.66667" type="curve" smooth="yes"/>
			<point x="-47.66667" y="1567.66667"/>
			<point x="-73.33333" y="1540.66667"/>
			<point x="-73.33333" y="1488.66667" type="curve" smooth="yes"/>
			<point x="-73.33333" y="1437"/>
			<point x="-48.33333" y="1410"/>
		</contour>
	</outline>
</glyph>
<glyph name="qubuts-hb" format="2">
	<advance width="0"/>
	<unicode hex="05BB"/>
	<anchor x="1" y="-75.66667" name="_bottom"/>
	<note>
		afii57796
	</note>
	<outline>
		<contour>
			<point x="-158.33333" y="-253.33333" type="curve" smooth="yes"/>
			<point x="-111" y="-253.33333"/>
			<point x="-85.66667" y="-225.66667"/>
			<point x="-85.66667" y="-174.66667" type="curve" smooth="yes"/>
			<point x="-85.66667" y="-123.66667"/>
			<point x="-111.66667" y="-95.66667"/>
			<point x="-158.33333" y="-95.66667" type="curve" smooth="yes"/>
			<point x="-203.33333" y="-95.66667"/>
			<point x="-230" y="-121.33333"/>
			<point x="-230" y="-174.33333" type="curve" smooth="yes"/>
			<point x="-230" y="-225.66667"/>
			<point x="-205" y="-253.33333"/>
		</contour>
		<contour>
			<point x="-3" y="-400" type="curve" smooth="yes"/>
			<point x="46" y="-400"/>
			<point x="71.66667" y="-371.66667"/>
			<point x="71.66667" y="-320.33333" type="curve" smooth="yes"/>
			<point x="71.66667" y="-269.66667"/>
			<point x="46" y="-241.66667"/>
			<point x="-3" y="-241.66667" type="curve" smooth="yes"/>
			<point x="-49.66667" y="-241.66667"/>
			<point x="-75" y="-269.66667"/>
			<point x="-75" y="-320.66667" type="curve" smooth="yes"/>
			<point x="-75" y="-372.33333"/>
			<point x="-49.66667" y="-400"/>
		</contour>
		<contour>
			<point x="156" y="-546.33333" type="curve" smooth="yes"/>
			<point x="203.66667" y="-546.33333"/>
			<point x="230" y="-518.33333"/>
			<point x="230" y="-467" type="curve" smooth="yes"/>
			<point x="230" y="-416.33333"/>
			<point x="203.66667" y="-388"/>
			<point x="156" y="-388" type="curve" smooth="yes"/>
			<point x="109.66667" y="-388"/>
			<point x="84" y="-415.33333"/>
			<point x="84" y="-467" type="curve" smooth="yes"/>
			<point x="84" y="-519.33333"/>
			<point x="108.66667" y="-546.33333"/>
		</contour>
	</outline>
</glyph>
<glyph name="dagesh-hb" format="2">
	<advance width="0"/>
	<unicode hex="05BC"/>
	<anchor x="1" y="665.66667" name="_center"/>
	<note>
		afii57807
	</note>
	<outline>
		<contour>
			<point x="-2.33333" y="586.66667" type="curve" smooth="yes"/>
			<point x="47" y="586.66667"/>
			<point x="73.66667" y="614.33333"/>
			<point x="73.66667" y="665.33333" type="curve" smooth="yes"/>
			<point x="73.66667" y="716"/>
			<point x="47" y="744.33333"/>
			<point x="-1.66667" y="744.33333" type="curve" smooth="yes"/>
			<point x="-48.66667" y="744.33333"/>
			<point x="-73.66667" y="717"/>
			<point x="-73.66667" y="665.33333" type="curve" smooth="yes"/>
			<point x="-73.66667" y="613.33333"/>
			<point x="-49.33333" y="586.66667"/>
		</contour>
	</outline>
</glyph>
<glyph name="siluqleft-hb" format="2">
	<advance width="0"/>
	<unicode hex="05BD"/>
	<anchor x="-1" y="-123.66667" name="_bottom"/>
	<note>
		afii57839
	</note>
	<outline>
		<contour>
			<point x="-47.33333" y="-465" type="line"/>
			<point x="47.33333" y="-465" type="line"/>
			<point x="47.33333" y="-143.66667" type="line"/>
			<point x="-47.33333" y="-143.66667" type="line"/>
		</contour>
	</outline>
</glyph>
<glyph name="shindot-hb" format="2">
	<advance width="0"/>
	<unicode hex="05C1"/>
	<anchor x="1" y="1094.66667" name="_topright"/>
	<note>
		afii57804
	</note>
	<outline>
		<contour>
			<point x="-2.33333" y="1410" type="curve" smooth="yes"/>
			<point x="47" y="1410"/>
			<point x="73.66667" y="1438"/>
			<point x="73.66667" y="1488.66667" type="curve" smooth="yes"/>
			<point x="73.66667" y="1539.33333"/>
			<point x="47" y="1567.66667"/>
			<point x="-1.66667" y="1567.66667" type="curve" smooth="yes"/>
			<point x="-48.66667" y="1567.66667"/>
			<point x="-73.66667" y="1540.66667"/>
			<point x="-73.66667" y="1488.66667" type="curve" smooth="yes"/>
			<point x="-73.66667" y="1437"/>
			<point x="-49.33333" y="1410"/>
		</contour>
	</outline>
</glyph>
<glyph name="sindot-hb" format="2">
	<advance width="0"/>
	<unicode hex="05C2"/>
	<anchor x="94" y="1390" name="_topleft"/>
	<note>
		afii57803
	</note>
	<outline>
		<contour>
			<point x="-1.66667" y="1410" type="curve" smooth="yes"/>
			<point x="47.66667" y="1410"/>
			<point x="74" y="1438"/>
			<point x="74" y="1488.66667" type="curve" smooth="yes"/>
			<point x="74" y="1539.33333"/>
			<point x="47.66667" y="1567.66667"/>
			<point x="-1" y="1567.66667" type="curve" smooth="yes"/>
			<point x="-48.33333" y="1567.66667"/>
			<point x="-74" y="1540.66667"/>
			<point x="-74" y="1488.66667" type="curve" smooth="yes"/>
			<point x="-74" y="1437"/>
			<point x="-49" y="1410"/>
		</contour>
	</outline>
</glyph>
<glyph name="qamatsqatan-hb" format="2">
	<advance width="0"/>
	<unicode hex="05C7"/>
	<anchor x="-0.66667" y="-54.66667" name="_bottom"/>
	<note>
		uni05C7
	</note>
	<outline>
		<contour>
			<point x="-40.66667" y="-312" type="line"/>
			<point x="38.66667" y="-312" type="line"/>
			<point x="38.66667" y="-155.66667" type="line"/>
			<point x="164.33333" y="-155.66667" type="line"/>
			<point x="164.33333" y="-74.66667" type="line"/>
			<point x="-164.33333" y="-74.66667" type="line"/>
			<point x="-164.33333" y="-155.66667" type="line"/>
			<point x="-40.66667" y="-155.66667" type="line"/>
		</contour>
	</outline>
</glyph>
<glyph name="alef-hb" format="2">
	<advance width="859.33333"/>
	<unicode hex="05D0"/>
	<anchor x="418.66667" y="-202.66667" name="bottom"/>
	<anchor x="20" y="0" name="bottomleft"/>
	<anchor x="362" y="267.66667" name="center"/>
	<anchor x="430" y="1094.66667" name="top"/>
	<anchor x="20" y="1094.66667" name="topleft"/>
	<note>
		afii57664
	</note>
	<outline>
		<contour>
			<point x="76.66667" y="0" type="line"/>
			<point x="225.33333" y="0" type="line"/>
			<point x="225.33333" y="456" type="line" smooth="yes"/>
			<point x="225.33333" y="523.66667"/>
			<point x="232.66667" y="577.33333"/>
			<point x="248.33333" y="621" type="curve" smooth="yes"/>
			<point x="263.33333" y="663"/>
			<point x="287" y="694.33333"/>
			<point x="320.66667" y="718" type="curve"/>
			<point x="617" y="0" type="line"/>
			<point x="788.33333" y="0" type="line"/>
			<point x="595" y="447.33333" type="line"/>
			<point x="676.66667" y="484.66667"/>
			<point x="723.33333" y="539.66667"/>
			<point x="746.66667" y="601.33333" type="curve" smooth="yes"/>
			<point x="777" y="673.66667"/>
			<point x="784.33333" y="765.33333"/>
			<point x="784.33333" y="824" type="curve" smooth="yes"/>
			<point x="784.33333" y="1290" type="line"/>
			<point x="635.33333" y="1290" type="line"/>
			<point x="635.33333" y="823.66667" type="line" smooth="yes"/>
			<point x="635.33333" y="762.33333"/>
			<point x="629" y="712.66667"/>
			<point x="615.33333" y="672.66667" type="curve" smooth="yes"/>
			<point x="599.66667" y="628.33333"/>
			<point x="575" y="596.66667"/>
			<point x="539" y="573.33333" type="curve"/>
			<point x="238.33333" y="1290" type="line"/>
			<point x="68.33333" y="1290" type="line"/>
			<point x="264.66667" y="843" type="line"/>
			<point x="189.33333" y="807.66667"/>
			<point x="133.33333" y="750.66667"/>
			<point x="106.66667" y="667.66667" type="curve" smooth="yes"/>
			<point x="86" y="604.66667"/>
			<point x="76.66667" y="536.33333"/>
			<point x="76.66667" y="455.66667" type="curve" smooth="yes"/>
		</contour>
	</outline>
</glyph>
<glyph name="bet-hb" format="2">
	<advance width="807.66667"/>
	<unicode hex="05D1"/>
	<anchor x="404" y="0" name="bottom"/>
	<anchor x="20.33333" y="0" name="bottomleft"/>
	<anchor x="309.66667" y="659.33333" name="center"/>
	<anchor x="404" y="1094.66667" name="top"/>
	<anchor x="20.33333" y="1094.66667" name="topleft"/>
	<note>
		afii57665
	</note>
	<outline>
		<contour>
			<point x="91.66667" y="0" type="line"/>
			<point x="776.33333" y="0" type="line"/>
			<point x="776.33333" y="127.66667" type="line"/>
			<point x="674.33333" y="127.66667" type="line"/>
			<point x="674.33333" y="920.33333" type="line" smooth="yes"/>
			<point x="674.33333" y="1027.66667"/>
			<point x="659" y="1132"/>
			<point x="625" y="1184.33333" type="curve" smooth="yes"/>
			<point x="594.33333" y="1233.66667"/>
			<point x="547" y="1269"/>
			<point x="483.66667" y="1288.66667" type="curve" smooth="yes"/>
			<point x="439" y="1303.33333"/>
			<point x="382.33333" y="1310"/>
			<point x="293" y="1310" type="curve" smooth="yes"/>
			<point x="228.66667" y="1310"/>
			<point x="162.66667" y="1306.33333"/>
			<point x="90.66667" y="1298" type="curve"/>
			<point x="90.66667" y="1167.33333" type="line"/>
			<point x="186" y="1177.33333"/>
			<point x="229.66667" y="1180.33333"/>
			<point x="308" y="1180.33333" type="curve" smooth="yes"/>
			<point x="334.33333" y="1180.33333"/>
			<point x="361.33333" y="1178.33333"/>
			<point x="383.66667" y="1174.33333" type="curve" smooth="yes"/>
			<point x="485.33333" y="1157.33333"/>
			<point x="521.66667" y="1085.33333"/>
			<point x="521.66667" y="920.66667" type="curve" smooth="yes"/>
			<point x="521.66667" y="127.66667" type="line"/>
			<point x="91.66667" y="127.66667" type="line"/>
		</contour>
	</outline>
</glyph>
<glyph name="gimel-hb" format="2">
	<advance width="699.33333"/>
	<unicode hex="05D2"/>
	<anchor x="349.66667" y="0" name="bottom"/>
	<anchor x="20" y="0" name="bottomleft"/>
	<anchor x="273.66667" y="658.33333" name="center"/>
	<anchor x="349.66667" y="1094.66667" name="top"/>
	<anchor x="20" y="1094.66667" name="topleft"/>
	<note>
		afii57666
	</note>
	<outline>
		<contour>
			<point x="169.66667" y="-9.66667" type="curve" smooth="yes"/>
			<point x="251.66667" y="-9.66667"/>
			<point x="314" y="21.66667"/>
			<point x="350.33333" y="65" type="curve" smooth="yes"/>
			<point x="384" y="104.66667"/>
			<point x="407.66667" y="157"/>
			<point x="422.66667" y="204.66667" type="curve"/>
			<point x="432.33333" y="204.66667" type="line"/>
			<point x="454" y="0" type="line"/>
			<point x="571" y="0" type="line"/>
			<point x="571" y="988.33333" type="line" smooth="yes"/>
			<point x="571" y="1091.33333"/>
			<point x="559.66667" y="1178.33333"/>
			<point x="500.33333" y="1241" type="curve" smooth="yes"/>
			<point x="454.33333" y="1289"/>
			<point x="384" y="1310"/>
			<point x="295.33333" y="1310" type="curve" smooth="yes"/>
			<point x="252" y="1310"/>
			<point x="210.33333" y="1304"/>
			<point x="170.33333" y="1292.33333" type="curve"/>
			<point x="170.33333" y="1159.33333" type="line"/>
			<point x="214.33333" y="1171.66667"/>
			<point x="251" y="1178.66667"/>
			<point x="280.33333" y="1178.66667" type="curve" smooth="yes"/>
			<point x="389.33333" y="1178.66667"/>
			<point x="419.33333" y="1104"/>
			<point x="419.33333" y="988.33333" type="curve" smooth="yes"/>
			<point x="419.33333" y="516" type="line" smooth="yes"/>
			<point x="419.33333" y="443.33333"/>
			<point x="413.33333" y="382.33333"/>
			<point x="402.33333" y="330.66667" type="curve" smooth="yes"/>
			<point x="375.33333" y="206"/>
			<point x="297.66667" y="135"/>
			<point x="170" y="135" type="curve" smooth="yes"/>
			<point x="147.66667" y="135"/>
			<point x="120.66667" y="139.33333"/>
			<point x="108.33333" y="146.33333" type="curve"/>
			<point x="89" y="1.33333" type="line"/>
			<point x="117.33333" y="-5.66667"/>
			<point x="143.66667" y="-9.66667"/>
		</contour>
	</outline>
</glyph>
<glyph name="dalet-hb" format="2">
	<advance width="733.33333"/>
	<unicode hex="05D3"/>
	<anchor x="366.33333" y="0" name="bottom"/>
	<anchor x="20" y="0" name="bottomleft"/>
	<anchor x="250" y="658" name="center"/>
	<anchor x="366.33333" y="1094.66667" name="top"/>
	<anchor x="20" y="1094.66667" name="topleft"/>
	<note>
		afii57667
	</note>
	<outline>
		<contour>
			<point x="361" y="0" type="line"/>
			<point x="513.33333" y="0" type="line"/>
			<point x="513.33333" y="891.66667" type="line" smooth="yes"/>
			<point x="513.33333" y="967.66667"/>
			<point x="530" y="1028.66667"/>
			<point x="562.66667" y="1075.33333" type="curve" smooth="yes"/>
			<point x="588.66667" y="1111.33333"/>
			<point x="634.66667" y="1148.33333"/>
			<point x="706.33333" y="1173.66667" type="curve"/>
			<point x="706.33333" y="1290" type="line"/>
			<point x="20.33333" y="1290" type="line"/>
			<point x="20.33333" y="1162.33333" type="line"/>
			<point x="500.66667" y="1162.33333" type="line"/>
			<point x="465.66667" y="1143.66667"/>
			<point x="443.33333" y="1122.33333"/>
			<point x="410.66667" y="1077.33333" type="curve" smooth="yes"/>
			<point x="383" y="1039.66667"/>
			<point x="361" y="969.66667"/>
			<point x="361" y="894.33333" type="curve" smooth="yes"/>
		</contour>
	</outline>
</glyph>
<glyph name="he-hb" format="2">
	<advance width="956.66667"/>
	<unicode hex="05D4"/>
	<anchor x="478.66667" y="0" name="bottom"/>
	<anchor x="20" y="0" name="bottomleft"/>
	<anchor x="480" y="547.66667" name="center"/>
	<anchor x="478.66667" y="1094.66667" name="top"/>
	<anchor x="20" y="1094.66667" name="topleft"/>
	<note>
		afii57668
	</note>
	<outline>
		<contour>
			<point x="675.66667" y="0" type="line"/>
			<point x="828.66667" y="0" type="line"/>
			<point x="828.66667" y="920.33333" type="line" smooth="yes"/>
			<point x="828.66667" y="1079"/>
			<point x="807" y="1179.33333"/>
			<point x="732" y="1238.33333" type="curve" smooth="yes"/>
			<point x="708.66667" y="1256.33333"/>
			<point x="683" y="1270.33333"/>
			<point x="653.66667" y="1281.33333" type="curve" smooth="yes"/>
			<point x="599.66667" y="1302"/>
			<point x="539" y="1310"/>
			<point x="448.66667" y="1310" type="curve" smooth="yes"/>
			<point x="405" y="1310"/>
			<point x="345" y="1306.66667"/>
			<point x="263.33333" y="1299" type="curve" smooth="yes"/>
			<point x="216.33333" y="1293.66667"/>
			<point x="173" y="1289"/>
			<point x="134.33333" y="1282.33333" type="curve"/>
			<point x="134.33333" y="1153.66667" type="line"/>
			<point x="309.66667" y="1173"/>
			<point x="394" y="1180.33333"/>
			<point x="445.66667" y="1180.33333" type="curve" smooth="yes"/>
			<point x="513" y="1180.33333"/>
			<point x="568" y="1173.33333"/>
			<point x="609.33333" y="1141.33333" type="curve" smooth="yes"/>
			<point x="659.33333" y="1105"/>
			<point x="675.66667" y="1036.66667"/>
			<point x="675.66667" y="920.66667" type="curve" smooth="yes"/>
		</contour>
		<contour>
			<point x="134.33333" y="0" type="line"/>
			<point x="286.66667" y="0" type="line"/>
			<point x="286.66667" y="816.66667" type="line"/>
			<point x="134.33333" y="816.66667" type="line"/>
		</contour>
	</outline>
</glyph>
<glyph name="zayin-hb" format="2">
	<advance width="474.66667"/>
	<unicode hex="05D6"/>
	<anchor x="237.33333" y="0" name="bottom"/>
	<anchor x="20" y="0" name="bottomleft"/>
	<anchor x="27" y="664.66667" name="center"/>
	<anchor x="237.33333" y="1094.66667" name="top"/>
	<anchor x="20" y="1094.66667" name="topleft"/>
	<note>
		afii57670
	</note>
	<outline>
		<contour>
			<point x="161.33333" y="0" type="line"/>
			<point x="313.66667" y="0" type="line"/>
			<point x="313.66667" y="688" type="line" smooth="yes"/>
			<point x="313.66667" y="752.33333"/>
			<point x="317.33333" y="805.33333"/>
			<point x="324.33333" y="854.66667" type="curve" smooth="yes"/>
			<point x="328.66667" y="893.33333"/>
			<point x="335.66667" y="928.66667"/>
			<point x="346.33333" y="970.33333" type="curve" smooth="yes"/>
			<point x="369.66667" y="1061"/>
			<point x="412" y="1140.33333"/>
			<point x="444.33333" y="1169.66667" type="curve"/>
			<point x="444.33333" y="1290" type="line"/>
			<point x="122.66667" y="1290" type="line"/>
			<point x="122.66667" y="1162.33333" type="line"/>
			<point x="308.66667" y="1162.33333" type="line"/>
			<point x="282.33333" y="1141.33333"/>
			<point x="256.33333" y="1101.66667"/>
			<point x="238.66667" y="1062.33333" type="curve" smooth="yes"/>
			<point x="197" y="986.33333"/>
			<point x="161.33333" y="854.33333"/>
			<point x="161.33333" y="688" type="curve" smooth="yes"/>
		</contour>
	</outline>
</glyph>
<glyph name="het-hb" format="2">
	<advance width="956.66667"/>
	<unicode hex="05D7"/>
	<anchor x="478.66667" y="0" name="bottom"/>
	<anchor x="20" y="0" name="bottomleft"/>
	<anchor x="478.66667" y="547.66667" name="center"/>
	<anchor x="478.66667" y="1094.66667" name="top"/>
	<anchor x="20" y="1094.66667" name="topleft"/>
	<note>
		afii57671
	</note>
	<outline>
		<contour>
			<point x="134.33333" y="0" type="line"/>
			<point x="286.66667" y="0" type="line"/>
			<point x="286.66667" y="1169.33333" type="line"/>
			<point x="352" y="1176.66667"/>
			<point x="403.33333" y="1180.33333"/>
			<point x="442.33333" y="1180.33333" type="curve" smooth="yes"/>
			<point x="523.66667" y="1180.33333"/>
			<point x="577.33333" y="1170.33333"/>
			<point x="619" y="1133.33333" type="curve" smooth="yes"/>
			<point x="661.33333" y="1095.66667"/>
			<point x="675.66667" y="1030"/>
			<point x="675.66667" y="920.66667" type="curve" smooth="yes"/>
			<point x="675.66667" y="0" type="line"/>
			<point x="828.66667" y="0" type="line"/>
			<point x="828.66667" y="920.33333" type="line" smooth="yes"/>
			<point x="828.66667" y="1035"/>
			<point x="815.33333" y="1120"/>
			<point x="778.66667" y="1181" type="curve" smooth="yes"/>
			<point x="766.33333" y="1202.66667"/>
			<point x="750.66667" y="1221.33333"/>
			<point x="731.33333" y="1237.33333" type="curve" smooth="yes"/>
			<point x="664.66667" y="1291"/>
			<point x="576.66667" y="1310"/>
			<point x="454" y="1310" type="curve" smooth="yes"/>
			<point x="412.66667" y="1310"/>
			<point x="358" y="1306.66667"/>
			<point x="294.33333" y="1300.66667" type="curve" smooth="yes"/>
			<point x="247" y="1295.66667"/>
			<point x="193.66667" y="1290.33333"/>
			<point x="134.33333" y="1282.33333" type="curve"/>
		</contour>
	</outline>
</glyph>
<glyph name="tet-hb" format="2">
	<advance width="939"/>
	<unicode hex="05D8"/>
	<anchor x="467.66667" y="0" name="bottom"/>
	<anchor x="20" y="0" name="bottomleft"/>
	<anchor x="475.66667" y="664" name="center"/>
	<anchor x="467.66667" y="1094.66667" name="top"/>
	<anchor x="20" y="1094.66667" name="topleft"/>
	<note>
		afii57672
	</note>
	<outline>
		<contour>
			<point x="468.66667" y="-20.66667" type="curve" smooth="yes"/>
			<point x="546.33333" y="-20.66667"/>
			<point x="618.66667" y="3"/>
			<point x="679.33333" y="56.66667" type="curve" smooth="yes"/>
			<point x="730.33333" y="103"/>
			<point x="774" y="175"/>
			<point x="802.33333" y="270.33333" type="curve" smooth="yes"/>
			<point x="831.66667" y="366.33333"/>
			<point x="848.66667" y="494.66667"/>
			<point x="848.66667" y="643.33333" type="curve" smooth="yes"/>
			<point x="848.66667" y="766"/>
			<point x="838.33333" y="876.33333"/>
			<point x="817" y="967.33333" type="curve" smooth="yes"/>
			<point x="792.33333" y="1076.66667"/>
			<point x="751" y="1162.66667"/>
			<point x="698.33333" y="1219" type="curve" smooth="yes"/>
			<point x="641.66667" y="1280.66667"/>
			<point x="569" y="1310"/>
			<point x="485.33333" y="1310" type="curve" smooth="yes"/>
			<point x="455.66667" y="1310"/>
			<point x="419" y="1307"/>
			<point x="388" y="1301.66667" type="curve"/>
			<point x="388" y="1171.66667" type="line"/>
			<point x="420.66667" y="1178"/>
			<point x="448.33333" y="1180.33333"/>
			<point x="476.66667" y="1179.66667" type="curve" smooth="yes"/>
			<point x="535" y="1179"/>
			<point x="585.66667" y="1148.66667"/>
			<point x="627.33333" y="1072.33333" type="curve" smooth="yes"/>
			<point x="671" y="991.66667"/>
			<point x="692" y="847.33333"/>
			<point x="692" y="645.33333" type="curve" smooth="yes"/>
			<point x="692" y="435"/>
			<point x="670" y="297"/>
			<point x="627.33333" y="218.66667" type="curve" smooth="yes"/>
			<point x="586" y="142.66667"/>
			<point x="538" y="112.33333"/>
			<point x="472.66667" y="112.33333" type="curve" smooth="yes"/>
			<point x="409.66667" y="112.33333"/>
			<point x="361" y="140.33333"/>
			<point x="318.33333" y="218.66667" type="curve" smooth="yes"/>
			<point x="273.66667" y="299.66667"/>
			<point x="252.33333" y="438.33333"/>
			<point x="252.33333" y="645.33333" type="curve" smooth="yes"/>
			<point x="252.33333" y="1289.33333" type="line"/>
			<point x="98" y="1289.33333" type="line"/>
			<point x="98" y="645" type="line" smooth="yes"/>
			<point x="98" y="505.33333"/>
			<point x="111.66667" y="384.66667"/>
			<point x="138.66667" y="289.33333" type="curve" smooth="yes"/>
			<point x="163.33333" y="199.33333"/>
			<point x="198.33333" y="129"/>
			<point x="243.66667" y="78.33333" type="curve" smooth="yes"/>
			<point x="301" y="12.66667"/>
			<point x="376" y="-20.66667"/>
		</contour>
	</outline>
</glyph>
<glyph name="yod-hb" format="2">
	<advance width="414"/>
	<unicode hex="05D9"/>
	<anchor x="207" y="0" name="bottom"/>
	<anchor x="19.66667" y="0" name="bottomleft"/>
	<anchor x="2" y="787.66667" name="center"/>
	<anchor x="207" y="1094.66667" name="top"/>
	<anchor x="19.66667" y="1094.66667" name="topleft"/>
	<note>
		afii57673
	</note>
	<outline>
		<contour>
			<point x="131" y="466.66667" type="line"/>
			<point x="170.66667" y="466.66667" type="line"/>
			<point x="282.66667" y="625.66667" type="line"/>
			<point x="282.66667" y="1290" type="line"/>
			<point x="131" y="1290" type="line"/>
		</contour>
	</outline>
</glyph>
<glyph name="finalkaf-hb" format="2">
	<advance width="727"/>
	<unicode hex="05DA"/>
	<anchor x="363.66667" y="0" name="bottom"/>
	<anchor x="20" y="0" name="bottomleft"/>
	<anchor x="232.33333" y="658.33333" name="center"/>
	<anchor x="363.66667" y="1094.66667" name="top"/>
	<anchor x="20" y="1094.66667" name="topleft"/>
	<note>
		afii57674
	</note>
	<outline>
		<contour>
			<point x="446" y="-492" type="line"/>
			<point x="599" y="-492" type="line"/>
			<point x="599" y="726.66667" type="line" smooth="yes"/>
			<point x="599" y="832.33333"/>
			<point x="591.33333" y="915.66667"/>
			<point x="573.33333" y="992.33333" type="curve" smooth="yes"/>
			<point x="550.66667" y="1110.66667"/>
			<point x="500.33333" y="1203"/>
			<point x="424.33333" y="1255.66667" type="curve" smooth="yes"/>
			<point x="373.33333" y="1291.33333"/>
			<point x="307.66667" y="1310"/>
			<point x="229" y="1310" type="curve" smooth="yes"/>
			<point x="197.66667" y="1310"/>
			<point x="166" y="1307.33333"/>
			<point x="135.33333" y="1301.66667" type="curve" smooth="yes"/>
			<point x="104.66667" y="1296"/>
			<point x="74.33333" y="1288"/>
			<point x="45.66667" y="1276.33333" type="curve"/>
			<point x="45.66667" y="1133.66667" type="line"/>
			<point x="74.66667" y="1146.33333"/>
			<point x="102.33333" y="1156"/>
			<point x="129.33333" y="1162.33333" type="curve" smooth="yes"/>
			<point x="165.66667" y="1169.66667"/>
			<point x="189" y="1173.66667"/>
			<point x="221" y="1173.66667" type="curve" smooth="yes"/>
			<point x="269.33333" y="1173.66667"/>
			<point x="312.33333" y="1158.33333"/>
			<point x="345" y="1128.66667" type="curve" smooth="yes"/>
			<point x="363.66667" y="1111.33333"/>
			<point x="382.33333" y="1084.66667"/>
			<point x="396" y="1052.66667" type="curve" smooth="yes"/>
			<point x="430.33333" y="977.33333"/>
			<point x="446" y="870"/>
			<point x="446" y="726.66667" type="curve" smooth="yes"/>
		</contour>
	</outline>
</glyph>
<glyph name="kaf-hb" format="2">
	<advance width="687.66667"/>
	<unicode hex="05DB"/>
	<anchor x="344.33333" y="0" name="bottom"/>
	<anchor x="20" y="0" name="bottomleft"/>
	<anchor x="231.33333" y="659.33333" name="center"/>
	<anchor x="344.33333" y="1094.66667" name="top"/>
	<anchor x="20" y="1094.66667" name="topleft"/>
	<note>
		afii57675
	</note>
	<outline>
		<contour>
			<point x="236.33333" y="-20" type="curve" smooth="yes"/>
			<point x="287.33333" y="-20"/>
			<point x="340.66667" y="-10"/>
			<point x="383" y="10" type="curve" smooth="yes"/>
			<point x="463" y="48"/>
			<point x="517" y="114.66667"/>
			<point x="552" y="211.33333" type="curve" smooth="yes"/>
			<point x="583" y="295.66667"/>
			<point x="598.66667" y="402"/>
			<point x="598.66667" y="528.66667" type="curve" smooth="yes"/>
			<point x="598.66667" y="726.66667" type="line" smooth="yes"/>
			<point x="598.66667" y="838.91893"/>
			<point x="586.81317" y="955.41397"/>
			<point x="562" y="1041.33333" type="curve" smooth="yes"/>
			<point x="539.33333" y="1119"/>
			<point x="503.33333" y="1185.66667"/>
			<point x="452.66667" y="1231" type="curve" smooth="yes"/>
			<point x="396.66667" y="1282.66667"/>
			<point x="324.66667" y="1310"/>
			<point x="231.66667" y="1310" type="curve" smooth="yes"/>
			<point x="185" y="1310"/>
			<point x="141.33333" y="1305"/>
			<point x="98.66667" y="1294.33333" type="curve" smooth="yes"/>
			<point x="80" y="1290.33333"/>
			<point x="62.33333" y="1284"/>
			<point x="45.66667" y="1276.33333" type="curve"/>
			<point x="45.66667" y="1130.66667" type="line"/>
			<point x="56.33333" y="1134.66667"/>
			<point x="66.33333" y="1138.33333"/>
			<point x="76.33333" y="1142" type="curve" smooth="yes"/>
			<point x="133" y="1164"/>
			<point x="175.33333" y="1173.66667"/>
			<point x="225.66667" y="1173.66667" type="curve" smooth="yes"/>
			<point x="294.33333" y="1173.66667"/>
			<point x="342" y="1144"/>
			<point x="377" y="1085.66667" type="curve" smooth="yes"/>
			<point x="420.66667" y="1012"/>
			<point x="443.33333" y="892"/>
			<point x="443.33333" y="726.66667" type="curve" smooth="yes"/>
			<point x="443.33333" y="528.66667" type="line" smooth="yes"/>
			<point x="443.33333" y="447"/>
			<point x="438.66667" y="387.66667"/>
			<point x="423" y="311" type="curve" smooth="yes"/>
			<point x="416" y="274.66667"/>
			<point x="401.33333" y="226"/>
			<point x="372.66667" y="186" type="curve" smooth="yes"/>
			<point x="343" y="145"/>
			<point x="298.33333" y="113.33333"/>
			<point x="228.33333" y="113.33333" type="curve" smooth="yes"/>
			<point x="158" y="113.33333"/>
			<point x="98" y="124.66667"/>
			<point x="49.66667" y="146.33333" type="curve"/>
			<point x="49.66667" y="8.66667" type="line"/>
			<point x="114.33333" y="-12"/>
			<point x="168.33333" y="-20"/>
		</contour>
	</outline>
</glyph>
<glyph name="lamed-hb" format="2">
	<advance width="678.33333"/>
	<unicode hex="05DC"/>
	<anchor x="339.33333" y="0" name="bottom"/>
	<anchor x="20" y="0" name="bottomleft"/>
	<anchor x="181.66667" y="658.66667" name="center"/>
	<anchor x="339.33333" y="1094.66667" name="top"/>
	<anchor x="20" y="1094.66667" name="topleft"/>
	<note>
		afii57676
	</note>
	<outline>
		<contour>
			<point x="235.66667" y="0" type="line"/>
			<point x="386.33333" y="0" type="line"/>
			<point x="481" y="503.33333" type="line"/>
			<point x="642.33333" y="1160.66667" type="line"/>
			<point x="642.33333" y="1294" type="line"/>
			<point x="196.33333" y="1294" type="line"/>
			<point x="196.33333" y="1564.66667" type="line"/>
			<point x="44.33333" y="1564.66667" type="line"/>
			<point x="44.33333" y="1161" type="line"/>
			<point x="494.66667" y="1161" type="line"/>
			<point x="329" y="496.33333" type="line"/>
		</contour>
	</outline>
</glyph>
<glyph name="finalmem-hb" format="2">
	<advance width="956"/>
	<unicode hex="05DD"/>
	<anchor x="478.66667" y="0" name="bottom"/>
	<anchor x="20" y="0" name="bottomleft"/>
	<anchor x="478.66667" y="547.66667" name="center"/>
	<anchor x="478.66667" y="1094.66667" name="top"/>
	<anchor x="20" y="1094.66667" name="topleft"/>
	<note>
		afii57677
	</note>
	<outline>
		<contour>
			<point x="134.33333" y="0" type="line"/>
			<point x="828.66667" y="0" type="line"/>
			<point x="828.66667" y="928.33333" type="line" smooth="yes"/>
			<point x="828.66667" y="1015"/>
			<point x="821" y="1081.66667"/>
			<point x="806.33333" y="1133.33333" type="curve" smooth="yes"/>
			<point x="787" y="1199"/>
			<point x="755.66667" y="1246"/>
			<point x="691.66667" y="1274" type="curve" smooth="yes"/>
			<point x="630.33333" y="1300.66667"/>
			<point x="554.66667" y="1310"/>
			<point x="444.33333" y="1310" type="curve" smooth="yes"/>
			<point x="392.33333" y="1310"/>
			<point x="316.66667" y="1305.33333"/>
			<point x="230" y="1297.33333" type="curve" smooth="yes"/>
			<point x="195" y="1294.66667"/>
			<point x="161.66667" y="1290.66667"/>
			<point x="134.33333" y="1287.33333" type="curve"/>
		</contour>
		<contour>
			<point x="286.66667" y="127.66667" type="line"/>
			<point x="286.66667" y="1171" type="line"/>
			<point x="349" y="1177.33333"/>
			<point x="394.33333" y="1180.33333"/>
			<point x="435.66667" y="1180.33333" type="curve" smooth="yes"/>
			<point x="498" y="1180.33333"/>
			<point x="537.66667" y="1178.33333"/>
			<point x="579" y="1165.33333" type="curve" smooth="yes"/>
			<point x="620.33333" y="1152.33333"/>
			<point x="640" y="1132.66667"/>
			<point x="656" y="1093.33333" type="curve" smooth="yes"/>
			<point x="670" y="1060"/>
			<point x="676.33333" y="1002"/>
			<point x="676.33333" y="928.66667" type="curve" smooth="yes"/>
			<point x="676.33333" y="127.66667" type="line"/>
		</contour>
	</outline>
</glyph>
<glyph name="mem-hb" format="2">
	<advance width="933.33333"/>
	<unicode hex="05DE"/>
	<anchor x="467.33333" y="0" name="bottom"/>
	<anchor x="20.33333" y="0" name="bottomleft"/>
	<anchor x="467.33333" y="547.66667" name="center"/>
	<anchor x="467.33333" y="1094.66667" name="top"/>
	<anchor x="20.33333" y="1094.66667" name="topleft"/>
	<note>
		afii57678
	</note>
	<outline>
		<contour>
			<point x="53.66667" y="0" type="line"/>
			<point x="206.33333" y="0" type="line"/>
			<point x="293.33333" y="962.66667" type="line"/>
			<point x="308" y="1012"/>
			<point x="329.33333" y="1055.66667"/>
			<point x="365.33333" y="1101.33333" type="curve" smooth="yes"/>
			<point x="400" y="1145.66667"/>
			<point x="449" y="1177.66667"/>
			<point x="525.33333" y="1177.66667" type="curve" smooth="yes"/>
			<point x="550" y="1177.66667"/>
			<point x="604" y="1167"/>
			<point x="631" y="1080.66667" type="curve" smooth="yes"/>
			<point x="643.66667" y="1040.33333"/>
			<point x="653.66667" y="985"/>
			<point x="653.66667" y="837.66667" type="curve" smooth="yes"/>
			<point x="653.66667" y="127.66667" type="line"/>
			<point x="425.66667" y="127.66667" type="line"/>
			<point x="425.66667" y="0" type="line"/>
			<point x="805.66667" y="0" type="line"/>
			<point x="805.66667" y="838" type="line" smooth="yes"/>
			<point x="805.66667" y="941.33333"/>
			<point x="798" y="1034"/>
			<point x="782" y="1102" type="curve" smooth="yes"/>
			<point x="771" y="1153.66667"/>
			<point x="751.66667" y="1200.66667"/>
			<point x="725.66667" y="1232" type="curve" smooth="yes"/>
			<point x="689.33333" y="1278.66667"/>
			<point x="629.66667" y="1310"/>
			<point x="549.33333" y="1310" type="curve" smooth="yes"/>
			<point x="471.66667" y="1310"/>
			<point x="407" y="1281.33333"/>
			<point x="368.66667" y="1251" type="curve" smooth="yes"/>
			<point x="334.33333" y="1223.66667"/>
			<point x="301.66667" y="1181"/>
			<point x="283" y="1140.33333" type="curve"/>
			<point x="274.33333" y="1140.33333" type="line"/>
			<point x="265.33333" y="1185.66667"/>
			<point x="248" y="1244.33333"/>
			<point x="228.33333" y="1290" type="curve"/>
			<point x="76.66667" y="1290" type="line"/>
			<point x="84.66667" y="1267.33333"/>
			<point x="92" y="1244.66667"/>
			<point x="99.66667" y="1222" type="curve" smooth="yes"/>
			<point x="107" y="1202"/>
			<point x="113.66667" y="1181"/>
			<point x="119.33333" y="1161" type="curve" smooth="yes"/>
			<point x="133.66667" y="1109"/>
			<point x="142" y="1058"/>
			<point x="142" y="1011.66667" type="curve" smooth="yes"/>
			<point x="142" y="992.33333"/>
			<point x="140.66667" y="966.66667"/>
			<point x="139.33333" y="949" type="curve" smooth="yes"/>
		</contour>
	</outline>
</glyph>
<glyph name="finalnun-hb" format="2">
	<advance width="424.33333"/>
	<unicode hex="05DF"/>
	<anchor x="212.33333" y="0" name="bottom"/>
	<anchor x="20" y="0" name="bottomleft"/>
	<anchor x="212.33333" y="547.66667" name="center"/>
	<anchor x="212.33333" y="1094.66667" name="top"/>
	<anchor x="20" y="1094.66667" name="topleft"/>
	<note>
		afii57679
	</note>
	<outline>
		<contour>
			<point x="140.66667" y="-492" type="line"/>
			<point x="292.66667" y="-492" type="line"/>
			<point x="292.66667" y="878.33333" type="line" smooth="yes"/>
			<point x="292.66667" y="989"/>
			<point x="281.33333" y="1104.33333"/>
			<point x="258" y="1216.66667" type="curve" smooth="yes"/>
			<point x="254" y="1242.33333"/>
			<point x="247.66667" y="1267"/>
			<point x="241.33333" y="1290" type="curve"/>
			<point x="88.66667" y="1290" type="line"/>
			<point x="93" y="1271.66667"/>
			<point x="98.33333" y="1254.33333"/>
			<point x="102.33333" y="1236" type="curve" smooth="yes"/>
			<point x="118.66667" y="1168.66667"/>
			<point x="140.66667" y="1010.33333"/>
			<point x="140.66667" y="878.33333" type="curve" smooth="yes"/>
		</contour>
	</outline>
</glyph>
<glyph name="nun-hb" format="2">
	<advance width="617.66667"/>
	<unicode hex="05E0"/>
	<anchor x="309" y="0" name="bottom"/>
	<anchor x="19.66667" y="0" name="bottomleft"/>
	<anchor x="179.66667" y="657.66667" name="center"/>
	<anchor x="309" y="1094.66667" name="top"/>
	<anchor x="19.66667" y="1094.66667" name="topleft"/>
	<note>
		afii57680
	</note>
	<outline>
		<contour>
			<point x="40.33333" y="0" type="line"/>
			<point x="447.33333" y="0" type="line"/>
			<point x="458" y="46.33333" type="line" smooth="yes"/>
			<point x="472.66667" y="111"/>
			<point x="490" y="239"/>
			<point x="490" y="341" type="curve" smooth="yes"/>
			<point x="490" y="988.33333" type="line" smooth="yes"/>
			<point x="490" y="1052.33333"/>
			<point x="483.33333" y="1107"/>
			<point x="470.66667" y="1146.66667" type="curve" smooth="yes"/>
			<point x="455" y="1202.33333"/>
			<point x="424" y="1245.33333"/>
			<point x="382.33333" y="1270" type="curve" smooth="yes"/>
			<point x="342.33333" y="1296"/>
			<point x="283" y="1310"/>
			<point x="216.66667" y="1310" type="curve" smooth="yes"/>
			<point x="179.33333" y="1310"/>
			<point x="141.33333" y="1305"/>
			<point x="91.66667" y="1293" type="curve"/>
			<point x="91.66667" y="1160.66667" type="line"/>
			<point x="136" y="1172.33333"/>
			<point x="171.66667" y="1178.66667"/>
			<point x="195.66667" y="1178.66667" type="curve" smooth="yes"/>
			<point x="227.33333" y="1178.66667"/>
			<point x="265.66667" y="1172.33333"/>
			<point x="291" y="1150" type="curve" smooth="yes"/>
			<point x="327.66667" y="1118.66667"/>
			<point x="338" y="1057.33333"/>
			<point x="338" y="988.33333" type="curve" smooth="yes"/>
			<point x="338" y="367.33333" type="line" smooth="yes"/>
			<point x="338" y="280.66667"/>
			<point x="330.33333" y="201.33333"/>
			<point x="314" y="127.66667" type="curve"/>
			<point x="40.33333" y="127.66667" type="line"/>
		</contour>
	</outline>
</glyph>
<glyph name="samekh-hb" format="2">
	<advance width="930"/>
	<unicode hex="05E1"/>
	<anchor x="463" y="0" name="bottom"/>
	<anchor x="20" y="0" name="bottomleft"/>
	<anchor x="463" y="564" name="center"/>
	<anchor x="463" y="1094.66667" name="top"/>
	<anchor x="20" y="1094.66667" name="topleft"/>
	<note>
		afii57681
	</note>
	<outline>
		<contour>
			<point x="464.33333" y="-20" type="curve" smooth="yes"/>
			<point x="545.66667" y="-20"/>
			<point x="615.33333" y="5.66667"/>
			<point x="670.66667" y="58.33333" type="curve" smooth="yes"/>
			<point x="724" y="106.66667"/>
			<point x="765" y="178"/>
			<point x="793" y="269.33333" type="curve" smooth="yes"/>
			<point x="823.33333" y="370.66667"/>
			<point x="838.66667" y="496.66667"/>
			<point x="838.66667" y="645" type="curve" smooth="yes"/>
			<point x="838.66667" y="821.33333"/>
			<point x="817.66667" y="962.33333"/>
			<point x="778.33333" y="1065.33333" type="curve" smooth="yes"/>
			<point x="745.66667" y="1152.33333"/>
			<point x="699.33333" y="1216"/>
			<point x="645.66667" y="1255" type="curve" smooth="yes"/>
			<point x="597.33333" y="1290"/>
			<point x="539.33333" y="1310"/>
			<point x="473.66667" y="1310" type="curve" smooth="yes"/>
			<point x="353.33333" y="1310"/>
			<point x="243.33333" y="1303"/>
			<point x="105.66667" y="1291.33333" type="curve"/>
			<point x="105.66667" y="1161.66667" type="line"/>
			<point x="233.66667" y="1169.66667" type="line"/>
			<point x="231" y="1163.33333" type="line"/>
			<point x="132.66667" y="1047.33333"/>
			<point x="87.33333" y="891"/>
			<point x="87.33333" y="650.66667" type="curve" smooth="yes"/>
			<point x="87.33333" y="502.66667"/>
			<point x="102.33333" y="374"/>
			<point x="133.33333" y="271.33333" type="curve" smooth="yes"/>
			<point x="168.33333" y="154.66667"/>
			<point x="224" y="70.33333"/>
			<point x="301.66667" y="24.33333" type="curve" smooth="yes"/>
			<point x="347.66667" y="-5"/>
			<point x="402" y="-20"/>
		</contour>
		<contour>
			<point x="462" y="112.33333" type="curve" smooth="yes"/>
			<point x="396" y="112.33333"/>
			<point x="348.33333" y="142.66667"/>
			<point x="308" y="218.33333" type="curve" smooth="yes"/>
			<point x="267" y="294.66667"/>
			<point x="244.33333" y="435"/>
			<point x="244.33333" y="667.66667" type="curve" smooth="yes"/>
			<point x="244.33333" y="899.66667"/>
			<point x="276" y="1062.66667"/>
			<point x="377" y="1173.33333" type="curve"/>
			<point x="407.33333" y="1176"/>
			<point x="435.66667" y="1176.66667"/>
			<point x="467.66667" y="1177.66667" type="curve" smooth="yes"/>
			<point x="528" y="1177.66667"/>
			<point x="576.33333" y="1145.66667"/>
			<point x="617.33333" y="1071.33333" type="curve" smooth="yes"/>
			<point x="660" y="992.66667"/>
			<point x="682.33333" y="845.66667"/>
			<point x="682.33333" y="643" type="curve" smooth="yes"/>
			<point x="682.33333" y="448.33333"/>
			<point x="661" y="300"/>
			<point x="617.66667" y="218.66667" type="curve" smooth="yes"/>
			<point x="576" y="142"/>
			<point x="527.66667" y="112.33333"/>
		</contour>
	</outline>
</glyph>
<glyph name="ayin-hb" format="2">
	<advance width="888"/>
	<unicode hex="05E2"/>
	<anchor x="444" y="0" name="bottom"/>
	<anchor x="20" y="0" name="bottomleft"/>
	<anchor x="444" y="547.66667" name="center"/>
	<anchor x="444" y="1094.66667" name="top"/>
	<anchor x="20" y="1094.66667" name="topleft"/>
	<note>
		afii57682
	</note>
	<outline>
		<contour>
			<point x="65.33333" y="-52.66667" type="line"/>
			<point x="154.33333" y="-37.33333"/>
			<point x="242.33333" y="-21"/>
			<point x="331.33333" y="-5.66667" type="curve" smooth="yes"/>
			<point x="458.66667" y="17.33333"/>
			<point x="547" y="64.66667"/>
			<point x="610.33333" y="139.33333" type="curve" smooth="yes"/>
			<point x="753.33333" y="268.66667"/>
			<point x="772.33333" y="459.66667"/>
			<point x="798.33333" y="720.33333" type="curve" smooth="yes"/>
			<point x="853.33333" y="1289.66667" type="line"/>
			<point x="700.66667" y="1289.66667" type="line"/>
			<point x="645.66667" y="706.33333" type="line" smooth="yes"/>
			<point x="622.66667" y="484"/>
			<point x="594.66667" y="272.66667"/>
			<point x="447" y="180.33333" type="curve"/>
			<point x="346" y="706.66667" type="line"/>
			<point x="220.33333" y="1290" type="line"/>
			<point x="67.66667" y="1290" type="line"/>
			<point x="322.66667" y="122.33333" type="line"/>
			<point x="293" y="117.33333"/>
			<point x="263.66667" y="112"/>
			<point x="234" y="107" type="curve" smooth="yes"/>
			<point x="65.33333" y="76.66667" type="line"/>
		</contour>
	</outline>
</glyph>
<glyph name="finalpe-hb" format="2">
	<advance width="943"/>
	<unicode hex="05E3"/>
	<anchor x="471.66667" y="0" name="bottom"/>
	<anchor x="20.33333" y="0" name="bottomleft"/>
	<anchor x="431.33333" y="854" name="center"/>
	<anchor x="471.66667" y="1094.66667" name="top"/>
	<anchor x="20.33333" y="1094.66667" name="topleft"/>
	<note>
		afii57683
	</note>
	<outline>
		<contour>
			<point x="663.66667" y="-492" type="line"/>
			<point x="815.66667" y="-492" type="line"/>
			<point x="815.66667" y="645.33333" type="line" smooth="yes"/>
			<point x="815.66667" y="808"/>
			<point x="798.33333" y="941.66667"/>
			<point x="762.33333" y="1046" type="curve" smooth="yes"/>
			<point x="730.66667" y="1140"/>
			<point x="682.33333" y="1210.66667"/>
			<point x="622.66667" y="1253.33333" type="curve" smooth="yes"/>
			<point x="576.33333" y="1286.66667"/>
			<point x="514.33333" y="1310"/>
			<point x="439" y="1310" type="curve" smooth="yes"/>
			<point x="358" y="1310"/>
			<point x="285.66667" y="1280.33333"/>
			<point x="229.33333" y="1228.66667" type="curve" smooth="yes"/>
			<point x="199" y="1203.66667"/>
			<point x="169.66667" y="1171"/>
			<point x="148.66667" y="1135.66667" type="curve" smooth="yes"/>
			<point x="106" y="1063"/>
			<point x="80.66667" y="969"/>
			<point x="80.66667" y="859" type="curve" smooth="yes"/>
			<point x="80.66667" y="719.33333"/>
			<point x="112" y="613.33333"/>
			<point x="162.66667" y="548" type="curve" smooth="yes"/>
			<point x="212.33333" y="483.66667"/>
			<point x="291" y="443"/>
			<point x="395.33333" y="438.33333" type="curve" smooth="yes"/>
			<point x="416" y="436" type="line"/>
			<point x="443.66667" y="556" type="line"/>
			<point x="421.66667" y="558.33333" type="line" smooth="yes"/>
			<point x="360.66667" y="560.66667"/>
			<point x="319.33333" y="581.66667"/>
			<point x="288.33333" y="621" type="curve" smooth="yes"/>
			<point x="250.66667" y="668.33333"/>
			<point x="229.66667" y="746"/>
			<point x="229.66667" y="861" type="curve" smooth="yes"/>
			<point x="229.66667" y="937.33333"/>
			<point x="246.33333" y="1009.66667"/>
			<point x="282" y="1074.33333" type="curve" smooth="yes"/>
			<point x="314" y="1136"/>
			<point x="370.33333" y="1177.66667"/>
			<point x="439.66667" y="1177.66667" type="curve" smooth="yes"/>
			<point x="495" y="1177.66667"/>
			<point x="545.66667" y="1153.66667"/>
			<point x="582.33333" y="1093.33333" type="curve" smooth="yes"/>
			<point x="637" y="1011"/>
			<point x="663.66667" y="866"/>
			<point x="663.66667" y="645.33333" type="curve" smooth="yes"/>
		</contour>
	</outline>
</glyph>
<glyph name="pe-hb" format="2">
	<advance width="902.66667"/>
	<unicode hex="05E4"/>
	<anchor x="451.66667" y="0" name="bottom"/>
	<anchor x="20.33333" y="0" name="bottomleft"/>
	<anchor x="448.66667" y="850.66667" name="center"/>
	<anchor x="451.66667" y="1094.66667" name="top"/>
	<anchor x="20.33333" y="1094.66667" name="topleft"/>
	<note>
		afii57684
	</note>
	<outline>
		<contour>
			<point x="423.66667" y="-20" type="curve" smooth="yes"/>
			<point x="509" y="-20"/>
			<point x="572" y="5.33333"/>
			<point x="620.66667" y="42.33333" type="curve" smooth="yes"/>
			<point x="673.33333" y="82.66667"/>
			<point x="720.33333" y="145.33333"/>
			<point x="752.66667" y="229.33333" type="curve" smooth="yes"/>
			<point x="793.33333" y="332"/>
			<point x="815.66667" y="472"/>
			<point x="815.66667" y="644.66667" type="curve" smooth="yes"/>
			<point x="815.66667" y="817"/>
			<point x="794.66667" y="957"/>
			<point x="758.33333" y="1057.66667" type="curve" smooth="yes"/>
			<point x="727" y="1143.33333"/>
			<point x="681.33333" y="1207.66667"/>
			<point x="631" y="1247.66667" type="curve" smooth="yes"/>
			<point x="581.66667" y="1285.66667"/>
			<point x="517.33333" y="1310"/>
			<point x="438.33333" y="1310" type="curve" smooth="yes"/>
			<point x="336.33333" y="1310"/>
			<point x="246.33333" y="1265.66667"/>
			<point x="181.66667" y="1185.66667" type="curve" smooth="yes"/>
			<point x="116" y="1105.33333"/>
			<point x="80.66667" y="992"/>
			<point x="80.66667" y="859.33333" type="curve" smooth="yes"/>
			<point x="80.66667" y="746"/>
			<point x="103.33333" y="653.66667"/>
			<point x="137.33333" y="590" type="curve" smooth="yes"/>
			<point x="156" y="555"/>
			<point x="182" y="524.33333"/>
			<point x="210" y="502.66667" type="curve" smooth="yes"/>
			<point x="256.33333" y="464.33333"/>
			<point x="323" y="439.66667"/>
			<point x="395.33333" y="438.33333" type="curve" smooth="yes"/>
			<point x="416" y="436" type="line"/>
			<point x="443.66667" y="556" type="line"/>
			<point x="421.66667" y="558.33333" type="line" smooth="yes"/>
			<point x="358.33333" y="561.33333"/>
			<point x="312.33333" y="588.33333"/>
			<point x="283.33333" y="629" type="curve" smooth="yes"/>
			<point x="247.33333" y="676"/>
			<point x="229.66667" y="758.33333"/>
			<point x="229.66667" y="861" type="curve" smooth="yes"/>
			<point x="229.66667" y="936.66667"/>
			<point x="245.66667" y="1007.66667"/>
			<point x="280" y="1072.66667" type="curve" smooth="yes"/>
			<point x="312" y="1135.33333"/>
			<point x="370" y="1177.66667"/>
			<point x="437.66667" y="1177.66667" type="curve" smooth="yes"/>
			<point x="503.66667" y="1177.66667"/>
			<point x="552" y="1150.33333"/>
			<point x="594.66667" y="1071.66667" type="curve" smooth="yes"/>
			<point x="611.33333" y="1041"/>
			<point x="624.66667" y="1001"/>
			<point x="635" y="951" type="curve" smooth="yes"/>
			<point x="651" y="873"/>
			<point x="659.33333" y="770.66667"/>
			<point x="659.33333" y="641.66667" type="curve" smooth="yes"/>
			<point x="659.33333" y="496.33333"/>
			<point x="645" y="377.33333"/>
			<point x="616.66667" y="292.33333" type="curve" smooth="yes"/>
			<point x="604" y="251.33333"/>
			<point x="587.66667" y="217.33333"/>
			<point x="567.66667" y="189.66667" type="curve" smooth="yes"/>
			<point x="527.66667" y="135"/>
			<point x="483.66667" y="112.33333"/>
			<point x="433.66667" y="112.33333" type="curve" smooth="yes"/>
			<point x="347.66667" y="112.33333"/>
			<point x="268" y="120.33333"/>
			<point x="178.66667" y="136.66667" type="curve"/>
			<point x="178.66667" y="2.66667" type="line"/>
			<point x="209.66667" y="-3" type="line" smooth="yes"/>
			<point x="263" y="-12.33333"/>
			<point x="350.33333" y="-20"/>
		</contour>
	</outline>
</glyph>
<glyph name="finaltsadi-hb" format="2">
	<advance width="731.66667"/>
	<unicode hex="05E5"/>
	<anchor x="366.33333" y="0" name="bottom"/>
	<anchor x="20" y="0" name="bottomleft"/>
	<anchor x="366.33333" y="547.66667" name="center"/>
	<anchor x="366.33333" y="1094.66667" name="top"/>
	<anchor x="20" y="1094.66667" name="topleft"/>
	<note>
		afii57685
	</note>
	<outline>
		<contour>
			<point x="201" y="-492" type="line"/>
			<point x="357.66667" y="-492" type="line"/>
			<point x="357.66667" y="441.66667" type="line"/>
			<point x="365" y="442.33333" type="line" smooth="yes"/>
			<point x="498.66667" y="463.66667"/>
			<point x="579" y="526.66667"/>
			<point x="619.66667" y="613.66667" type="curve" smooth="yes"/>
			<point x="650.66667" y="682"/>
			<point x="665.66667" y="754.33333"/>
			<point x="665.66667" y="835.33333" type="curve" smooth="yes"/>
			<point x="665.66667" y="1290" type="line"/>
			<point x="513.66667" y="1290" type="line"/>
			<point x="513.66667" y="835" type="line" smooth="yes"/>
			<point x="513.66667" y="693"/>
			<point x="466.66667" y="617.33333"/>
			<point x="373.66667" y="573.33333" type="curve" smooth="yes"/>
			<point x="368" y="572"/>
			<point x="360.66667" y="570.66667"/>
			<point x="347.33333" y="570.33333" type="curve"/>
			<point x="170" y="1290" type="line"/>
			<point x="4" y="1290" type="line"/>
			<point x="201" y="559" type="line"/>
		</contour>
	</outline>
</glyph>
<glyph name="tsadi-hb" format="2">
	<advance width="837.66667"/>
	<unicode hex="05E6"/>
	<anchor x="419.33333" y="0" name="bottom"/>
	<anchor x="20" y="0" name="bottomleft"/>
	<anchor x="200" y="393.33333" name="center"/>
	<anchor x="419.33333" y="1094.66667" name="top"/>
	<anchor x="20" y="1094.66667" name="topleft"/>
	<note>
		afii57686
	</note>
	<outline>
		<contour>
			<point x="62" y="0" type="line"/>
			<point x="748.66667" y="0" type="line"/>
			<point x="748.66667" y="81.33333" type="line"/>
			<point x="556.33333" y="481.66667" type="line"/>
			<point x="606" y="529.66667"/>
			<point x="637.66667" y="583.66667"/>
			<point x="663.33333" y="646.33333" type="curve" smooth="yes"/>
			<point x="691.66667" y="701.66667"/>
			<point x="706.66667" y="753.66667"/>
			<point x="718" y="806" type="curve" smooth="yes"/>
			<point x="734.66667" y="880"/>
			<point x="742.33333" y="945"/>
			<point x="749.33333" y="1040.66667" type="curve" smooth="yes"/>
			<point x="774" y="1289.66667" type="line"/>
			<point x="622.66667" y="1289.66667" type="line"/>
			<point x="593" y="989.66667" type="line" smooth="yes"/>
			<point x="575.33333" y="823.66667"/>
			<point x="549.33333" y="716.66667"/>
			<point x="489" y="626.33333" type="curve"/>
			<point x="480.66667" y="648.66667" type="line"/>
			<point x="218.33333" y="1290" type="line"/>
			<point x="58.66667" y="1290" type="line"/>
			<point x="366" y="548.33333" type="line"/>
			<point x="563.66667" y="123.33333" type="line"/>
			<point x="418" y="127.66667" type="line"/>
			<point x="62" y="127.66667" type="line"/>
		</contour>
	</outline>
</glyph>
<glyph name="qof-hb" format="2">
	<advance width="921"/>
	<unicode hex="05E7"/>
	<anchor x="461" y="0" name="bottom"/>
	<anchor x="20" y="0" name="bottomleft"/>
	<anchor x="428.33333" y="693" name="center"/>
	<anchor x="461" y="1094.66667" name="top"/>
	<anchor x="20" y="1094.66667" name="topleft"/>
	<note>
		afii57687
	</note>
	<outline>
		<contour>
			<point x="419.33333" y="0" type="curve"/>
			<point x="569.66667" y="0" type="line"/>
			<point x="569.66667" y="22.66667" type="line" smooth="yes"/>
			<point x="569.66667" y="72.66667"/>
			<point x="583.66667" y="149"/>
			<point x="609.66667" y="257.33333" type="curve" smooth="yes"/>
			<point x="625.33333" y="321.33333"/>
			<point x="644.33333" y="396.66667"/>
			<point x="668.66667" y="485.66667" type="curve" smooth="yes"/>
			<point x="858.66667" y="1178.66667" type="line"/>
			<point x="858.66667" y="1290" type="line"/>
			<point x="141.33333" y="1290" type="line"/>
			<point x="141.33333" y="1162.33333" type="line"/>
			<point x="699.66667" y="1162.33333" type="line"/>
			<point x="535" y="563.66667" type="line" smooth="yes"/>
			<point x="498.33333" y="422"/>
			<point x="464" y="326.66667"/>
			<point x="427" y="137" type="curve" smooth="yes"/>
			<point x="419.33333" y="97"/>
			<point x="416" y="65.33333"/>
			<point x="416" y="24" type="curve" smooth="yes"/>
			<point x="416" y="9.66667"/>
			<point x="418.33333" y="3"/>
		</contour>
		<contour>
			<point x="142.33333" y="-492.33333" type="line"/>
			<point x="294" y="-492.33333" type="line"/>
			<point x="294" y="763.33333" type="line"/>
			<point x="142.33333" y="763.33333" type="line"/>
		</contour>
	</outline>
</glyph>
<glyph name="resh-hb" format="2">
	<advance width="719.33333"/>
	<unicode hex="05E8"/>
	<anchor x="359.66667" y="0" name="bottom"/>
	<anchor x="20" y="0" name="bottomleft"/>
	<anchor x="257" y="659" name="center"/>
	<anchor x="359.66667" y="1094.66667" name="top"/>
	<anchor x="20" y="1094.66667" name="topleft"/>
	<note>
		afii57688
	</note>
	<outline>
		<contour>
			<point x="439.66667" y="0" type="line"/>
			<point x="592" y="0" type="line"/>
			<point x="592" y="920.33333" type="line" smooth="yes"/>
			<point x="592" y="1029.33333"/>
			<point x="583.66667" y="1112.66667"/>
			<point x="555" y="1170.33333" type="curve" smooth="yes"/>
			<point x="529.33333" y="1223.33333"/>
			<point x="496" y="1257"/>
			<point x="443" y="1279" type="curve" smooth="yes"/>
			<point x="386.66667" y="1301.33333"/>
			<point x="324.33333" y="1310"/>
			<point x="216.66667" y="1310" type="curve" smooth="yes"/>
			<point x="160.33333" y="1310"/>
			<point x="96.66667" y="1306.33333"/>
			<point x="29.66667" y="1298" type="curve"/>
			<point x="29.66667" y="1168" type="line"/>
			<point x="84.33333" y="1174"/>
			<point x="178.33333" y="1180.33333"/>
			<point x="232" y="1180.33333" type="curve" smooth="yes"/>
			<point x="299.66667" y="1180.33333"/>
			<point x="352.66667" y="1172"/>
			<point x="389" y="1137.33333" type="curve" smooth="yes"/>
			<point x="429" y="1099.33333"/>
			<point x="439.66667" y="1034.66667"/>
			<point x="439.66667" y="920.66667" type="curve" smooth="yes"/>
		</contour>
	</outline>
</glyph>
<glyph name="shin-hb" format="2">
	<advance width="1129"/>
	<unicode hex="05E9"/>
	<anchor x="565" y="0" name="bottom"/>
	<anchor x="20.33333" y="0" name="bottomleft"/>
	<anchor x="585.66667" y="432.66667" name="center"/>
	<anchor x="565" y="1094.66667" name="top"/>
	<anchor x="214.66667" y="1377.66667" name="topleft"/>
	<anchor x="1012.66667" y="1094" name="topright"/>
	<note>
		afii57689
	</note>
	<outline>
		<contour>
			<point x="171" y="0" type="line"/>
			<point x="362" y="0" type="line" smooth="yes"/>
			<point x="458.66667" y="0"/>
			<point x="550" y="17.33333"/>
			<point x="626.33333" y="52" type="curve" smooth="yes"/>
			<point x="746.66667" y="104.33333"/>
			<point x="829.33333" y="191.33333"/>
			<point x="887.33333" y="296" type="curve" smooth="yes"/>
			<point x="958.33333" y="410"/>
			<point x="1000" y="560"/>
			<point x="1015" y="727" type="curve" smooth="yes"/>
			<point x="1067.66667" y="1290" type="line"/>
			<point x="922.66667" y="1290" type="line"/>
			<point x="871" y="726.66667" type="line" smooth="yes"/>
			<point x="854" y="551"/>
			<point x="803" y="410"/>
			<point x="719.33333" y="302.66667" type="curve" smooth="yes"/>
			<point x="634" y="193.33333"/>
			<point x="508.33333" y="129.66667"/>
			<point x="362" y="129.66667" type="curve" smooth="yes"/>
			<point x="307.66667" y="129.66667" type="line"/>
			<point x="280.33333" y="454.33333" type="line"/>
			<point x="284" y="454.33333"/>
			<point x="287.66667" y="455"/>
			<point x="291.33333" y="455" type="curve"/>
			<point x="413.66667" y="488"/>
			<point x="491.33333" y="545.33333"/>
			<point x="544.66667" y="637.33333" type="curve" smooth="yes"/>
			<point x="591" y="723"/>
			<point x="613" y="815"/>
			<point x="627.33333" y="960.33333" type="curve" smooth="yes"/>
			<point x="656.33333" y="1290" type="line"/>
			<point x="512.66667" y="1290" type="line"/>
			<point x="485.66667" y="990" type="line" smooth="yes"/>
			<point x="472.33333" y="858"/>
			<point x="452" y="765.33333"/>
			<point x="414" y="699.33333" type="curve" smooth="yes"/>
			<point x="381.33333" y="642"/>
			<point x="335" y="605"/>
			<point x="270" y="580" type="curve"/>
			<point x="210.66667" y="1290" type="line"/>
			<point x="63.66667" y="1290" type="line"/>
		</contour>
	</outline>
</glyph>
<glyph name="tav-hb" format="2">
	<advance width="948.33333"/>
	<unicode hex="05EA"/>
	<anchor x="474.33333" y="0" name="bottom"/>
	<anchor x="20" y="0" name="bottomleft"/>
	<anchor x="487.66667" y="559.33333" name="center"/>
	<anchor x="474.33333" y="1094.66667" name="top"/>
	<anchor x="20" y="1094.66667" name="topleft"/>
	<note>
		afii57690
	</note>
	<outline>
		<contour>
			<point x="109.33333" y="-6.66667" type="curve" smooth="yes"/>
			<point x="147.33333" y="-6.66667"/>
			<point x="187.33333" y="-2.66667"/>
			<point x="218.66667" y="12.33333" type="curve" smooth="yes"/>
			<point x="249.33333" y="27.33333"/>
			<point x="272.33333" y="53.66667"/>
			<point x="286.66667" y="92.66667" type="curve" smooth="yes"/>
			<point x="302.33333" y="134"/>
			<point x="310" y="190"/>
			<point x="310" y="257.33333" type="curve" smooth="yes"/>
			<point x="310" y="1175.33333" type="line"/>
			<point x="386.66667" y="1179"/>
			<point x="437.66667" y="1179.33333"/>
			<point x="462.33333" y="1178.66667" type="curve" smooth="yes"/>
			<point x="489" y="1177"/>
			<point x="512.66667" y="1173"/>
			<point x="534.33333" y="1165.66667" type="curve" smooth="yes"/>
			<point x="629" y="1145.33333"/>
			<point x="665.33333" y="1078.66667"/>
			<point x="665.33333" y="920.66667" type="curve" smooth="yes"/>
			<point x="665.33333" y="0" type="line"/>
			<point x="817.66667" y="0" type="line"/>
			<point x="817.66667" y="920.33333" type="line" smooth="yes"/>
			<point x="817.66667" y="1051.33333"/>
			<point x="801.33333" y="1147"/>
			<point x="747.66667" y="1210" type="curve" smooth="yes"/>
			<point x="727.33333" y="1235.33333"/>
			<point x="701.66667" y="1255.66667"/>
			<point x="670.66667" y="1270.66667" type="curve" smooth="yes"/>
			<point x="610.66667" y="1300"/>
			<point x="555" y="1310"/>
			<point x="412" y="1310" type="curve" smooth="yes"/>
			<point x="303.66667" y="1310"/>
			<point x="151.33333" y="1291.66667"/>
			<point x="71.66667" y="1279.33333" type="curve"/>
			<point x="71.66667" y="1150.33333" type="line"/>
			<point x="100.33333" y="1154.66667"/>
			<point x="129" y="1159"/>
			<point x="157.33333" y="1161.33333" type="curve"/>
			<point x="157.33333" y="257.33333" type="line" smooth="yes"/>
			<point x="157.33333" y="182.66667"/>
			<point x="144" y="128.33333"/>
			<point x="83.33333" y="128.33333" type="curve" smooth="yes"/>
			<point x="68" y="128.33333"/>
			<point x="47.66667" y="132.33333"/>
			<point x="21.33333" y="139.66667" type="curve"/>
			<point x="21.33333" y="7.66667" type="line"/>
			<point x="51" y="-1"/>
			<point x="83" y="-6.66667"/>
		</contour>
	</outline>
</glyph>
<glyph name="imoddotless" format="2">
	<advance width="276"/>
	<anchor x="140" y="588" name="bottom"/>
	<anchor x="139" y="1246" name="top"/>
	<anchor x="249" y="1246" name="topright"/>
	<outline>
		<contour>
			<point x="189" y="1246" type="line"/>
			<point x="88" y="1246" type="line"/>
			<point x="88" y="588" type="line"/>
			<point x="189" y="588" type="line"/>
		</contour>
	</outline>
</glyph>
<glyph name="uni1DA4dotless" format="2">
	<advance width="276"/>
	<anchor x="140" y="588" name="bottom"/>
	<anchor x="139" y="1246" name="top"/>
	<anchor x="249" y="1246" name="topright"/>
	<outline>
		<contour>
			<point x="270" y="973" type="line"/>
			<point x="6" y="973" type="line"/>
			<point x="6" y="902" type="line"/>
			<point x="270" y="902" type="line"/>
		</contour>
		<contour>
			<point x="189" y="1246" type="line"/>
			<point x="88" y="1246" type="line"/>
			<point x="88" y="588" type="line"/>
			<point x="189" y="588" type="line"/>
		</contour>
	</outline>
</glyph>
